# xmcd
#
# Track frame offsets:
#	150
#	17010
#	34432
#	51944
#	64965
#	83806
#	99572
#	117961
#	134844
#	151018
#	167152
#	184873
#	203898
#	221135
#	231769
#	248439
#	267268
#	281224
#	299303
#	313771
#
# Disc length: 4417 seconds
#
# Revision: 1
# Processed by: cddbd v1.5.2PL0 Copyright (c) Steve Scherf et al.
# Submitted via: audiograbber 1.83.01
#
DISCID=31113f14
DTITLE=Various Artist - Nu Country Traxx Volume 106
DYEAR=2008
DGENRE=Country
TTITLE0=You're Gonna Miss This - Trace Adkins
TTITLE1=Stronger Woman - Jewel
TTITLE2=Busy Being Favulous - The Eagles
TTITLE3=Picture To Burn - Taylor Swift
TTITLE4=Some Things Never Change - Sara Evans
TTITLE5=I Still Miss You - Keith Anderson
TTITLE6=Make Me Believe - Katie Armiger
TTITLE7=Trying To Stop Your Leaving - Dierks Bentley
TTITLE8=Come With Me - Zane Lewis
TTITLE9=Good Friend And A Glass Of Wine - LeAnn Rimes
TTITLE10=Grandpa's Barn - The Roys
TTITLE11=Cry Lonely - Cross Canadian Ragweed
TTITLE12=She Likes It In The Morning - Clay Walker
TTITLE13=Stayed 'Til Two - Gord Bamford
TTITLE14=If You Didnt Love Me - Phil Stacey
TTITLE15=Daddy's Girl - Eddie P. Briley
TTITLE16=Trying To Get The Girl - Sammy Sadler
TTITLE17=That's Why God Made Me - Shannon Walker
TTITLE18=Breakin' On The Love Thing - Alex J. Robinson
TTITLE19=Long Way To Paradise - Rick Tippe
EXTD=
EXTT0=
EXTT1=
EXTT2=
EXTT3=
EXTT4=
EXTT5=
EXTT6=
EXTT7=
EXTT8=
EXTT9=
EXTT10=
EXTT11=
EXTT12=
EXTT13=
EXTT14=
EXTT15=
EXTT16=
EXTT17=
EXTT18=
EXTT19=
PLAYORDER=
